HIERARCHY
ROOT pelvis
{
  OFFSET 0 100 0
  CHANNELS 6 Xposition Yposition Zposition Zrotation Xrotation Yrotation
  JOINT pelvis_right_femur
  {
    OFFSET -10.78128 -3.44521 -0.5502486
    CHANNELS 3 Zrotation Xrotation Yrotation
    JOINT right_femur_tibia
    {
      OFFSET -0.8047443 -44.0398 -0.1307829
      CHANNELS 3 Zrotation Xrotation Yrotation
      JOINT right_tibia_foot
      {
        OFFSET 3.006224 -47.83518 -5
        CHANNELS 3 Zrotation Xrotation Yrotation
        End Site
        {
          OFFSET 0 -5 15
        }
      }
    }
  }
  JOINT pelvis_left_femur
  {
    OFFSET 10.78128 -3.44521 -0.5502486
    CHANNELS 3 Zrotation Xrotation Yrotation
    JOINT left_femur_tibia
    {
      OFFSET 0.8047443 -44.0398 -0.1307829
      CHANNELS 3 Zrotation Xrotation Yrotation
      JOINT left_tibia_foot
      {
        OFFSET -4.370144 -48.10324 -4.275266
        CHANNELS 3 Zrotation Xrotation Yrotation
        End Site
        {
          OFFSET 0 -5 15
        }
      }
    }
  }
  JOINT pelvis_spine1
  {
    OFFSET 0 6.468898 -3.129235
    CHANNELS 3 Zrotation Xrotation Yrotation
    JOINT spine1
    {
      OFFSET 0 23.15396 4.99043
      CHANNELS 3 Zrotation Xrotation Yrotation
      JOINT spine2
      {
        OFFSET 0 20.79997 -5.064912
        CHANNELS 3 Zrotation Xrotation Yrotation
        JOINT neck
        {
          OFFSET 0 14.38658 9.616178
          CHANNELS 3 Zrotation Xrotation Yrotation
          End Site
          {
            OFFSET 0 20 0
          }
        }
      }
      JOINT right_manubrium
      {
        OFFSET -5.722621 16.35077 3.967754
        CHANNELS 3 Zrotation Xrotation Yrotation
        JOINT right_clavicle
        {
          OFFSET -13.16364 1.694482 -4.693211
          CHANNELS 3 Zrotation Xrotation Yrotation
          JOINT right_humerus
          {
            OFFSET -28.5034 -0.3100689 -2.792744
            CHANNELS 3 Zrotation Xrotation Yrotation
            JOINT right_radius
            {
              OFFSET -25.15693 0.02248979 -1.271978
              CHANNELS 3 Zrotation Xrotation Yrotation
              End Site
              {
                OFFSET -15 0 0
              }
            }
          }
        }
      }
      JOINT left_manubrium
      {
        OFFSET 5.722621 16.35077 3.967754
        CHANNELS 3 Zrotation Xrotation Yrotation
        JOINT left_clavicle
        {
          OFFSET 13.16364 1.694482 -4.693211
          CHANNELS 3 Zrotation Xrotation Yrotation
          JOINT left_humerus
          {
            OFFSET 29.39168 -1.063119 -2.237045
            CHANNELS 3 Zrotation Xrotation Yrotation
            JOINT left_radius
            {
              OFFSET 24.59957 -0.9528479 0.9047498
              CHANNELS 3 Zrotation Xrotation Yrotation
              End Site
              {
                OFFSET 15 -0 -0
              }
            }
          }
        }
      }
    }
  }
}
MOTION
Frames: 11
Frame Time: 0.0416666666667
-1122.567 100.4278 2586.571 -6.55614 -6.060366 -60.73486 -1.872171 9.947942 -0.4650672 -0 52.8539 -0 -12.61052 13.57454 2.448375 -6.315826 -5.895346 -13.0861 -0 18.12496 -0 0.2751857 -9.659375 20.84581 0.671944 -0.56225 7.855091 1.508048 13.89332 -7.352034 1.30353 21.91484 0.6969972 -2.71037 -23.88172 5.812893 -9.471285 -34.97485 11.87942 96.16319 22.03888 -8.359667 -0 0 29.18651 -19.43858 7.673335 9.031059 -1.981582 -18.6735 -4.398341 -93.91922 12.102 39.68805 -0 0 1.847863 6.222006 14.75332 -1.712033
-1126.968 101.84 2589.953 -7.247827 -5.819691 -59.97158 -1.003253 3.437434 -1.050751 -0 54.59753 -0 -13.07947 13.69866 1.922351 -5.82273 -1.792568 -12.51589 -0 16.74796 -0 1.201661 -10.74926 20.40442 0.6151325 -0.3688642 7.783625 1.576056 13.70315 -7.438193 1.445686 22.06786 0.4038282 -3.283747 -24.44288 6.109333 -10.25501 -35.628 11.74414 96.86274 22.47012 -7.842059 -0 0 29.70419 -19.27256 7.239998 9.027841 -2.520183 -18.02688 -3.820879 -93.88646 12.43502 40.33649 -0 0 2.899701 5.780738 14.98115 -1.752154
-1131.041 102.8733 2593.094 -7.642057 -5.470051 -59.28681 -0.2601724 -3.068563 -1.826702 -0 52.19528 -0 -13.20729 12.16682 1.33878 -5.279626 1.962545 -11.88133 -0 14.80909 -0 1.770068 -12.11277 19.56954 0.5638072 -0.2088599 7.665088 1.634576 13.43161 -7.618611 1.552059 22.23054 0.2351172 -3.681579 -24.92416 6.365094 -10.96879 -35.8744 11.60872 97.61307 23.02204 -7.826112 -0 0 29.73077 -19.10968 6.646043 8.756391 -2.781847 -17.64735 -3.222438 -93.5058 12.67916 40.21454 -0 0 3.295272 5.734769 15.28391 -2.251673
-1134.92 103.3682 2596.063 -7.615346 -5.138709 -58.7115 0.1548535 -8.876418 -2.791685 -0 46.3621 -0 -12.91203 9.86066 0.8067916 -4.920234 5.248304 -11.40389 -0 12.79018 -0 1.82301 -13.81951 18.47686 0.5343377 -0.1011199 7.513117 1.679202 13.09109 -7.885364 1.610497 22.36457 0.2265919 -3.858084 -25.30982 6.57357 -11.54009 -35.68499 11.49615 98.34284 23.63089 -8.320895 -0 0 29.27148 -18.96769 5.966587 8.243529 -2.71293 -17.5797 -2.619401 -92.81353 12.79916 39.31692 -0 0 2.978738 6.103175 15.63186 -3.178133
-1138.746 103.2872 2598.933 -7.158375 -4.843637 -58.23647 0.2534749 -13.73252 -3.889211 -0 38.49343 -0 -12.22939 7.520774 0.3972369 -4.823157 8.058567 -11.12154 -0 11.08786 -0 1.443814 -15.76045 17.30297 0.537309 -0.05112236 7.339282 1.709234 12.69867 -8.217945 1.615304 22.43059 0.4027168 -3.792806 -25.61122 6.744737 -11.90811 -35.08543 11.42442 98.9846 24.24442 -9.264657 -0 0 28.3918 -18.85104 5.298867 7.546175 -2.29941 -17.8233 -2.017581 -91.89877 12.77068 37.73815 -0 0 1.981272 6.853393 15.97511 -4.449807
-1142.634 102.6907 2601.767 -6.355459 -4.541638 -57.83593 0.1768879 -17.68593 -4.990767 -0 30.02786 -0 -11.28911 5.62686 0.1322382 -4.953997 10.42678 -10.94997 -0 9.983065 -0 0.8847858 -17.708 16.21208 0.5758004 -0.05250262 7.150984 1.727821 12.27645 -8.587545 1.569455 22.40045 0.7667242 -3.495059 -25.85586 6.897536 -12.03834 -34.14573 11.40025 99.48811 24.82531 -10.54644 -0 0 27.1943 -18.75199 4.7391 6.739671 -1.571196 -18.33495 -1.421445 -90.87874 12.59349 35.64429 -0 0 0.4041432 7.905269 16.25786 -5.947416
-1146.675 101.6984 2604.621 -5.347826 -4.186024 -57.48463 0.1025088 -20.89189 -5.942061 -0 22.07591 -0 -10.26031 4.409977 -0.00816806 -5.222655 12.38964 -10.76406 -0 9.670907 -0 0.4153998 -19.40501 15.31143 0.6458113 -0.09075689 6.952985 1.74089 11.85005 -8.962774 1.484028 22.26621 1.294469 -3.003504 -26.07339 7.049967 -11.93271 -32.96623 11.4175 99.83009 25.34912 -12.03171 -0 0 25.79647 -18.65535 4.356221 5.90306 -0.5993008 -19.03955 -0.8426299 -89.86885 12.2962 33.23954 0 0 -1.601598 9.144319 16.43457 -7.532416
-1150.941 100.4568 2607.542 -4.297863 -3.758538 -57.16553 0.1833007 -23.4679 -6.610475 -0 15.33624 -0 -9.298633 3.907323 -0.07014008 -5.52696 13.97685 -10.45891 -0 10.30429 -0 0.1929093 -20.62525 14.62815 0.7382327 -0.1480746 6.750121 1.754919 11.44492 -9.315435 1.374611 22.0421 1.937592 -2.377933 -26.2838 7.211412 -11.62799 -31.65949 11.46128 100.0156 25.80103 -13.58789 -0 0 24.31131 -18.54553 4.174802 5.104208 0.5176001 -19.84819 -0.3031204 -88.95684 11.92804 30.72984 0 0 -3.860929 10.44527 16.48204 -9.071764
-1155.484 99.12109 2610.565 -3.362075 -3.275041 -56.87268 0.5256756 -25.42809 -6.901596 -0 10.17133 -0 -8.512614 4.019311 -0.1120927 -5.776044 15.20429 -9.978432 -0 12.02479 -0 0.2144183 -21.19551 14.11449 0.8416826 -0.208193 6.548989 1.774457 11.08253 -9.624716 1.256506 21.75869 2.635364 -1.68519 -26.49167 7.379941 -11.18261 -30.33078 11.51486 100.071 26.17351 -15.10498 -0 0 22.83304 -18.4129 4.17553 4.389264 1.674608 -20.67849 0.1680185 -88.19027 11.54223 28.29048 0 0 -6.20405 11.69879 16.40228 -10.46196
-1160.344 97.8481 2613.718 -2.673186 -2.777348 -56.61376 1.186634 -26.6789 -6.756417 -0 6.717217 -0 -7.952293 4.555845 -0.1971725 -5.899187 16.05963 -9.319172 -0 14.97037 -0 0.3495698 -20.99808 13.68271 0.9451349 -0.2598065 6.357952 1.800599 10.77831 -9.878575 1.141117 21.45279 3.328914 -0.9852121 -26.68722 7.544408 -10.65919 -29.06352 11.56519 100.0318 26.46512 -16.50649 -0 0 21.43033 -18.2566 4.310436 3.779684 2.781373 -21.46924 0.5414888 -87.57977 11.18035 26.04733 0 0 -8.490151 12.8302 16.21636 -11.64257
-1165.536 96.79218 2617.011 -2.3279 -2.321934 -56.41395 2.168242 -27.05247 -6.154188 -0 4.955585 -0 -7.615388 5.271491 -0.3878783 -5.848455 16.48127 -8.521608 -0 19.25385 -0 0.4213224 -19.97469 13.25971 1.03949 -0.2977285 6.186017 1.83093 10.54169 -10.07251 1.034743 21.15838 3.971456 -0.3223094 -26.85136 7.688847 -10.11043 -27.91329 11.6049 99.93214 26.67973 -17.74976 -0 0 20.14683 -18.08317 4.522508 3.276227 3.774421 -22.18525 0.7936963 -87.11214 10.8648 24.07445 0 0 -10.61887 13.80417 15.954 -12.59548
